<svg xmlns="http://www.w3.org/2000/svg" viewBox="0 0 1024 1024" width="1024" height="1024">
<path d="M 664.0 394.5 L 548.5 393.0 L 578.0 356.5 L 687.0 356.5 L 688.5 359.0 L 664.0 394.5 Z" fill="#c8890a"/>
<path d="M 393.0 720.5 L 324.0 681.5 L 319.5 676.0 L 437.5 555.0 L 434.0 547.5 L 285.0 661.5 L 245.5 639.0 L 443.0 497.5 L 443.0 494.5 L 205.0 618.5 L 156.5 590.0 L 387.0 484.5 L 521.0 407.5 L 596.0 407.5 L 597.5 409.0 L 560.0 462.5 L 508.0 462.5 L 466.5 522.0 L 489.5 555.0 L 458.0 599.5 L 428.0 599.5 L 403.5 631.0 L 453.5 634.0 L 393.0 720.5 Z" fill="#c8890a"/>
<path d="M 698.0 337.5 L 632.5 336.0 L 747.0 177.5 L 810.0 177.5 L 807.5 185.0 L 698.0 337.5 Z" fill="#2a8e94"/>
<path d="M 448.0 748.5 L 419.5 734.0 L 502.5 632.0 L 584.0 631.5 L 627.5 552.0 L 623.0 548.5 L 516.0 524.5 L 514.5 522.0 L 538.0 492.5 L 659.0 492.5 L 675.5 466.0 L 675.0 462.5 L 599.5 461.0 L 637.0 407.5 L 676.0 407.5 L 715.5 464.0 L 613.5 670.0 L 519.0 717.5 L 519.5 712.0 L 546.5 665.0 L 544.0 660.5 L 539.0 659.5 L 488.0 728.5 L 448.0 748.5 Z" fill="#2a8e94"/>
<path d="M 638.0 667.5 L 634.5 666.0 L 668.0 601.5 L 863.0 546.5 L 865.5 548.0 L 778.0 596.5 L 638.0 667.5 Z" fill="#2a8e94"/>
<path d="M 553.0 599.5 L 459.5 598.0 L 487.5 557.0 L 494.0 554.5 L 570.0 572.5 L 571.5 575.0 L 553.0 599.5 Z" fill="#2a8e94"/>
<path d="M 517.0 786.5 L 461.5 757.0 L 524.0 727.5 L 620.0 688.5 L 859.0 598.5 L 864.5 599.0 L 675.0 706.5 L 517.0 786.5 Z" fill="#2a8e94"/>
</svg>